<svg xmlns="http://www.w3.org/2000/svg" height="1024" preserveAspectRatio="none" style="display: block;" version="1.1" viewBox="0 0 2048 2048" width="1024">

<path d="M 999.808 335.431 C 1044.57 333.107 1089.44 337.156 1133.06 347.456 C 1254.12 375.707 1354.3 445.339 1420.03 551.48 C 1478.34 646.857 1496.83 761.327 1471.52 870.212 C 1466.06 861.777 1460.5 852.31 1455.21 843.684 C 1466.72 769.488 1462.25 690.397 1431.55 621.021 C 1424.37 648.331 1415.35 673.554 1407.26 700.271 C 1399.8 724.881 1392.81 750.013 1385.46 774.749 C 1389.59 781.289 1396.24 795.813 1400.2 803.491 L 1434.85 871.273 L 1482.76 965.93 C 1497.28 994.112 1512.02 1022.19 1526.22 1050.54 C 1529.83 1059.88 1533.81 1062.27 1527.72 1071.29 C 1500.33 1111.84 1471.21 1151.01 1443.31 1191.2 C 1436.94 1200.38 1430.94 1210.48 1423.74 1218.94 C 1371.68 1219.75 1319.6 1219.73 1267.54 1218.9 C 1249.58 1236.01 1221.03 1265.8 1203.91 1284.37 C 1211.91 1291.48 1230.96 1319.62 1238.95 1329.73 C 1250.94 1346.25 1264.55 1361.77 1276.35 1378.41 C 1286.23 1392.32 1284.63 1394.95 1271.02 1402.77 C 1227.3 1427.89 1194.77 1455.61 1168.03 1499.06 C 1162.44 1495.43 1156.7 1491.87 1151.05 1488.31 C 1179.4 1440.08 1209.13 1413.67 1257.37 1387.37 C 1241.44 1364.35 1222.23 1342.5 1205.31 1319.91 C 1200.36 1313.3 1180.88 1292.38 1180.04 1284.25 C 1180.78 1276.33 1191.18 1265.24 1197.67 1260.04 C 1210.89 1249.45 1248.59 1201.97 1260.29 1198.19 C 1268.45 1195.56 1308.1 1197.18 1316.42 1197.25 L 1415.1 1197.52 C 1424.73 1180.96 1437.39 1165.27 1447.94 1149.39 C 1467.37 1120.15 1488.5 1091.83 1508.16 1062.89 C 1497.69 1038.83 1483.57 1013.73 1471.45 990.255 C 1451.34 950.375 1430.99 910.619 1410.39 870.987 C 1396.01 843.141 1375.33 804.502 1363.12 776.06 C 1368.9 751.411 1381.05 719.069 1388.37 694.068 C 1398.25 660.37 1408.04 625.181 1419.44 592.127 C 1414.41 585.044 1406.65 570.147 1401.64 561.861 C 1390.24 542.864 1377.14 524.949 1362.48 508.342 C 1280.93 415.411 1172.37 364.281 1049.25 356.314 C 996.749 353.866 944.213 360.266 893.838 375.245 C 803.387 401.596 724.016 456.767 667.799 532.367 C 652.703 553.06 642.399 571.941 630.038 594.431 C 637.961 614.884 648.88 652.573 655.607 674.4 C 665.292 705.822 679.017 744.759 686.965 775.725 C 672.856 806.746 652.148 844.207 636.163 875.124 L 540.203 1060.98 C 552.019 1077.07 563.752 1094.98 575.258 1111.46 L 636.308 1197.94 C 659.779 1197.17 684.55 1197.52 708.131 1197.48 C 735.789 1197.18 763.451 1197.31 791.104 1197.87 C 796.436 1202.2 811.351 1216.45 815.57 1221.65 C 826.043 1234.57 867.814 1270.22 871.304 1284.09 C 868.272 1293.73 802.643 1372.29 791.336 1387.04 C 838.36 1408.3 872.32 1445.1 899.275 1487.95 C 892.713 1491.76 888.835 1494.47 882.702 1499.01 C 853.944 1453.64 819.333 1421.34 769.948 1400.02 C 764.893 1397.01 763.741 1388.69 766.924 1384.39 C 792.277 1350.18 820.719 1317.75 846.244 1283.68 C 834.584 1273.74 821.938 1259.31 811.038 1248.12 C 802.585 1239.45 790.86 1227.97 783.755 1218.62 C 751.118 1218.97 718.478 1219.12 685.839 1219.06 C 668.048 1219.07 643.921 1219.73 626.822 1218.27 C 619.156 1211.63 606.589 1192.75 600.15 1183.64 C 584.972 1162.06 569.915 1140.39 554.98 1118.65 C 544.217 1103.21 525.166 1078.87 516.791 1063.52 C 521.873 1048.86 543.897 1011.06 551.971 994.809 C 588.983 920.958 626.624 847.424 664.891 774.214 C 650.864 729.669 636.671 685.223 623.335 640.464 C 621.597 634.63 619.498 628.854 617.002 623.301 C 611.252 640.498 604.99 658.556 600.537 676.056 C 587.291 728.111 584.644 790.268 595.285 842.913 C 590.967 850.82 583.673 861.335 578.614 869.104 C 573.491 850.1 570.992 827.055 569.438 807.422 C 559.796 690.332 598.774 576.192 677.019 488.513 C 761.27 394.103 874.426 343.505 999.808 335.431 z" fill="rgb(161,0,255)" transform="translate(0,0)"></path>
<path d="M 818.68 735.397 C 849.648 732.923 880.365 742.579 904.347 762.326 C 929.828 783.503 945.69 814.064 948.342 847.09 C 949.642 862.953 948.833 883.588 948.955 899.969 C 949.297 946.088 951.606 978.805 919.91 1016.29 C 899.701 1040.18 869.487 1056.62 838.015 1059.05 C 807.815 1062.08 777.604 1053.38 753.643 1034.75 C 727.496 1014.62 710.581 984.792 706.73 952.019 C 704.505 933.413 705.207 914.274 705.038 895.725 C 704.639 851.909 703.232 816.024 732.507 779.931 C 754.512 752.801 784.504 739.253 818.68 735.397 z" fill="rgb(161,0,255)" transform="translate(0,0)"></path>
<path d="M 823.781 756.42 C 875.961 753.026 923.978 797.113 926.824 848.948 C 927.73 865.452 926.947 882.358 927.043 898.676 C 927.262 935.752 930.738 973.149 903.604 1002.63 C 884.558 1024 860.739 1035.91 832.358 1038.11 C 804.868 1038.48 781.976 1030.46 761.078 1013.18 C 723.474 982.019 726.628 940.346 727.123 896.439 C 727.57 856.7 721.429 823.953 750.298 791.598 C 770.719 768.711 793.522 758.69 823.781 756.42 z" fill="rgb(0,0,0)" transform="translate(0,0)"></path>
<path d="M 1213.52 735.396 C 1244.63 732.943 1275.5 742.527 1299.76 762.171 C 1322.87 780.956 1339.97 812.73 1342.48 842.218 C 1343.81 857.939 1343 878.238 1343.07 894.557 C 1343.3 941.942 1347.17 976.908 1314.77 1016.25 C 1293.11 1042.54 1264.75 1056.47 1231.01 1059.59 C 1202.46 1062.1 1169.14 1051.26 1146.88 1033.37 C 1121.38 1013.18 1105.1 983.566 1101.72 951.222 C 1100.24 936.711 1101.07 915.637 1100.96 900.504 C 1100.62 854.716 1096.93 817.759 1128.38 779.881 C 1150.94 752.709 1178.67 738.972 1213.52 735.396 z" fill="rgb(161,0,255)" transform="translate(0,0)"></path>
<path d="M 1209.67 757.366 C 1236.11 754.382 1259.1 759.84 1281.09 775.104 C 1302.02 789.415 1316.34 811.525 1320.84 836.48 C 1323.33 850.703 1323.03 946.213 1320.11 960.182 C 1317.37 973.009 1312.03 985.137 1304.41 995.813 C 1287.89 1018.82 1264.79 1032.29 1237.02 1036.81 C 1185.29 1046.32 1129.02 1005.91 1123.75 953.257 C 1120.55 929.657 1124.75 902.222 1122.4 878.783 C 1116.5 819.773 1145.48 765.296 1209.67 757.366 z" fill="rgb(0,0,0)" transform="translate(0,0)"></path>
<path d="M 1024.41 1519.35 C 1046.12 1504.39 1063.45 1496.24 1090.57 1496.07 C 1122.44 1496.41 1151.56 1506.71 1174.25 1529.4 C 1218.39 1573.54 1221.32 1635.92 1175.76 1680.19 C 1151.99 1703.3 1125.75 1710.25 1093.29 1709.98 C 1067.32 1707.23 1043.43 1698.27 1025.14 1679.05 C 963.498 1739.14 854.373 1705.46 840.884 1619.12 C 834.731 1579.72 863.203 1533.48 896.259 1514.12 C 914.345 1503.52 927.794 1498.08 949.719 1496.43 C 980.639 1493.64 1000.15 1502.31 1024.41 1519.35 z" fill="rgb(161,0,255)" transform="translate(0,0)"></path>
<path d="M 1091.17 1517.44 C 1110.59 1517.89 1128.01 1521.67 1144.62 1532.31 C 1165.55 1545.74 1180.27 1566.97 1185.51 1591.28 C 1201.19 1665.24 1108.76 1715.19 1050.84 1672.77 C 1045.82 1669.89 1028.23 1652.26 1022.67 1655.56 C 1001.27 1668.28 990 1681.68 964.227 1686.79 C 961.892 1687.07 959.554 1687.31 957.212 1687.51 C 931.447 1689.65 909.359 1681.55 889.435 1665.03 C 850.537 1632.78 854.533 1587.48 885.453 1550.9 C 911.306 1520.31 955.218 1509.03 992.458 1525.22 C 1001.59 1529.19 1015.36 1542.44 1025.64 1543.36 C 1030.76 1541.87 1047.15 1528.34 1056.13 1524.89 C 1071.23 1519.09 1075 1518.4 1091.17 1517.44 z" fill="rgb(0,0,0)" transform="translate(0,0)"></path>
<path d="M 1017.73 1024.42 C 1038.59 1022.07 1060.37 1027.93 1077.7 1039.61 C 1097.75 1053.33 1111.6 1074.36 1116.29 1098.2 C 1118.89 1111.71 1118.27 1129.5 1118.2 1143.49 L 1117.86 1198.13 C 1117.78 1211.14 1119.78 1260.48 1113.85 1269.24 C 1106.25 1272.98 1044.95 1272.1 1032.5 1272.13 C 1018.78 1272.16 941.352 1274.59 934.665 1269.54 C 931.666 1267.28 930.935 1260.71 930.595 1257.31 C 928.873 1240.06 930.802 1221.75 930.801 1204.34 C 930.801 1176.67 927.57 1124.01 933.211 1098.52 C 936.401 1083.56 943.155 1069.59 952.9 1057.8 C 969.928 1037.2 991.278 1026.86 1017.73 1024.42 z" fill="rgb(161,0,255)" transform="translate(0,0)"></path>
<path d="M 1013.62 1045.25 C 1013.72 1045.34 1013.85 1045.4 1013.93 1045.51 C 1015.65 1047.83 1015.02 1229.19 1015.1 1250.85 L 952.049 1251.22 C 951.352 1247.29 951.446 1199.09 951.713 1192.6 C 952.637 1170.14 949.271 1129.72 952.069 1109.25 C 953.364 1099.68 956.586 1090.47 961.54 1082.17 C 974.429 1060.16 989.678 1051.32 1013.62 1045.25 z" fill="rgb(0,0,0)" transform="translate(0,0)"></path>
<path d="M 1035.32 1046.91 C 1051.19 1049.5 1064.63 1055.46 1076.2 1066.84 C 1085.45 1076.1 1091.98 1087.73 1095.04 1100.46 C 1098.34 1114.01 1097.62 1144.94 1097.59 1160.08 C 1097.31 1190.37 1097.21 1220.67 1097.27 1250.96 C 1077.01 1250.56 1055.43 1250.87 1035.07 1250.86 L 1035.32 1046.91 z" fill="rgb(0,0,0)" transform="translate(0,0)"></path>
<path d="M 685.143 1247.09 L 711.94 1247.32 C 714.396 1254.73 719.103 1264.38 722.386 1271.64 C 758.886 1352.37 747.754 1426.12 704.111 1500.61 C 748.256 1524.91 787.073 1557.83 818.262 1597.41 L 808.416 1606.13 L 802.505 1612.38 C 771.818 1574.77 739.521 1544.37 696.725 1520.92 C 691.363 1517.98 684.619 1513.69 680.87 1508.86 C 679.076 1500.38 688.71 1486.3 692.992 1478.63 C 697.666 1470.26 701.844 1461.62 705.507 1452.76 C 711.23 1439.18 715.671 1425.09 718.773 1410.68 C 730.663 1353.45 717.025 1295.56 685.143 1247.09 z" fill="rgb(161,0,255)" transform="translate(0,0)"></path>
<path d="M 1341.72 1246.98 C 1349.71 1247.08 1357.71 1247.37 1365.69 1247.87 C 1309.97 1351.86 1318.72 1407.99 1368.98 1502.17 C 1370.03 1504.13 1366.6 1511.27 1364.03 1512.72 C 1321.11 1536.91 1285.12 1565.93 1254.12 1604.43 L 1248.62 1611.21 C 1243.58 1607.36 1237.38 1601.7 1232.46 1597.46 C 1259.3 1561.27 1305.31 1523.76 1343.97 1500.26 C 1322.73 1456.7 1307.21 1420.89 1307.85 1371.15 C 1308.46 1323.89 1321.03 1288.44 1341.72 1246.98 z" fill="rgb(161,0,255)" transform="translate(0,0)"></path>
<metadata><recraft-signature>{"signed_by": "recraft", "signature_b64": "e2+gUuMO7pj4jlGtnEBsGk5Ix+UvQefNhp5UbUcnkyNvXtK6Qnl96Ulx4/jQsYITrXC1ySi/Eb2SW1iUqJu4Bw==", "signing_algo": "Ed25519", "generation_timestamp": 1781209008, "identifier": "e9e98734-fae9-4d1e-862d-55edc9594261"}</recraft-signature></metadata></svg>