<svg xmlns="http://www.w3.org/2000/svg" height="1024" preserveAspectRatio="none" style="display: block;" version="1.1" viewBox="0 0 2048 2048" width="1024">
<path d="M 0 0 L 2048 0 L 2048 2048 L 0 2048 L 0 0 z" fill="rgb(0,0,0)" transform="translate(0,0)"></path>
<path d="M 432.495 333.513 C 534.067 332.3 637.065 333.365 738.759 333.422 L 1249.51 333.272 L 1556.89 333.458 L 1641.72 333.582 C 1658.21 333.471 1675 332.95 1691.48 333.28 C 1696.11 333.373 1702.02 336.329 1705.32 339.457 C 1709.99 343.883 1710.91 348.579 1710.92 354.807 C 1710.93 376.452 1710.35 398.171 1710.27 419.817 L 1710.27 553.976 L 1710.27 952.13 L 1710.24 1471.08 C 1710.17 1542.05 1710.53 1613.08 1710.45 1684.05 C 1710.23 1689.58 1709.94 1704.2 1705.98 1707.98 C 1696.44 1717.1 1676.43 1714.52 1664.13 1714.32 L 1619.5 1714.05 L 656.98 1713.95 L 440.091 1713.98 L 384.924 1714.28 C 374.581 1714.35 361.915 1714.87 351.774 1713.42 C 346.665 1712.69 341.91 1705.82 339.152 1701.8 C 338.319 1680.09 338.907 1655.16 338.923 1633.27 L 338.939 1510.22 L 338.911 1129.98 L 339.011 592.822 L 339.002 453.586 C 338.863 424.045 338.621 394.393 338.635 364.874 C 339.236 358.842 338.57 344.61 342.848 340.421 C 352.53 330.942 373.403 333.475 386.049 333.577 L 432.495 333.513 z" fill="rgb(161,0,255)" transform="translate(0,0)"></path>
<path d="M 378.082 374.156 C 505.576 375.886 636.075 374.649 763.76 374.623 L 1670.02 375.006 L 1669.17 1671.84 C 1665.12 1673.33 1618.7 1672.8 1611.92 1672.83 L 1429.36 1673.1 L 378.066 1673 C 379.095 1620.28 378.139 1564.35 378.175 1511.39 L 378.214 1175.34 L 378.082 374.156 z" fill="rgb(0,0,0)" transform="translate(0,0)"></path>
<path d="M 737.616 445.373 C 747.565 443.642 770.655 444.929 780.469 446.171 C 808.442 449.471 835.074 459.997 857.745 476.713 C 884.229 496.011 909.544 530.238 931.475 555.661 L 982.825 616.278 C 997.059 633.048 1011.69 649.571 1025.18 666.923 C 1044.06 641.913 1066.34 616.987 1086.66 592.783 L 1130.22 541.284 C 1150.13 517.876 1172.81 488.885 1198.69 472.92 C 1239.18 447.936 1285.46 438.669 1332 449.855 C 1356.16 455.786 1378.76 466.888 1398.22 482.397 C 1432.78 509.825 1465.9 561.371 1495.63 594.721 C 1507.06 607.545 1518.53 622.772 1528.81 636.507 C 1531.44 640.023 1531.7 647.709 1530.38 651.747 C 1528.76 657.4 1521.76 661.101 1517.21 664.406 C 1496.1 677.009 1473.2 687.571 1451.39 698.952 L 1312.48 771.952 C 1278.31 790.011 1244.27 808.313 1210.36 826.855 C 1191.59 837.051 1172.71 847.567 1153.46 856.789 C 1141.16 862.119 1133.41 862.124 1125.04 851.112 C 1093.7 809.906 1054.45 769.504 1024.56 727.643 C 994.121 770.395 953.781 811.127 921.74 853.164 C 912.965 864.677 906.088 863.453 894.235 857.196 C 872.252 845.594 850.072 834.002 828.018 822.355 L 715.859 763.116 C 653.788 729.768 590.719 697.906 529.285 663.377 C 524.417 660.641 518.356 656.972 517.482 650.802 C 516.23 641.966 523.427 630.82 528.787 624.207 C 548.133 600.336 568.245 576.347 587.668 552.643 C 632.977 497.351 660.246 455.224 737.616 445.373 z" fill="rgb(161,0,255)" transform="translate(0,0)"></path>
<path d="M 751.196 484.42 C 753.795 484.304 756.398 484.279 758.999 484.344 C 833.664 486.555 866.465 538.157 909.073 590.199 C 927.132 612.103 945.361 633.865 963.76 655.483 C 975.159 668.976 987.8 684.607 999.752 697.416 C 986.853 714.208 971.511 730.837 958.002 747.368 C 939.287 770.267 920.94 793.779 901.703 816.198 C 883.472 807.904 861.621 795.916 843.501 786.581 C 780.394 754.135 718.018 718.152 654.776 685.723 C 626.778 671.367 594.139 650.603 565.22 639.537 C 601.773 601.787 631.524 555.062 669.172 518.126 C 690.918 496.791 721.083 486.486 751.196 484.42 z" fill="rgb(0,0,0)" transform="translate(0,0)"></path>
<path d="M 754.921 553.418 C 784.578 550.977 813.75 561.583 836.615 584.139 C 849.444 596.795 877.047 640.446 836.643 644.929 C 826.316 646.075 816.702 623.661 810.559 615.494 C 799.862 601.275 785.536 595.932 767.817 593.328 C 709.212 588.505 707.191 639.629 685.657 644.057 C 680.388 645.14 675.469 643 671.233 639.991 C 667.074 637.038 664.228 632.829 663.666 627.698 C 662.287 615.106 672.366 600.361 680.1 591.074 C 699.951 567.241 724.466 556.297 754.921 553.418 z" fill="rgb(161,0,255)" transform="translate(0,0)"></path>
<path d="M 1288.21 485.424 C 1293.04 485.059 1303.77 485.747 1308.61 486.287 C 1330.6 488.773 1351.58 496.888 1369.53 509.848 C 1387.44 522.922 1408.25 550.412 1423 568.29 C 1442.21 591.46 1461.26 614.761 1480.14 638.191 C 1444.86 657.409 1409.74 675.025 1374.35 693.764 L 1208.52 782.046 C 1188.14 792.698 1168.12 804.269 1147.4 815.042 C 1140.47 807.845 1132.55 797.509 1125.93 789.767 C 1099.74 759.112 1077.3 727.43 1049.3 698.266 C 1094.49 648.338 1137.51 591.046 1182.84 540.328 C 1214.25 505.19 1239.82 488.597 1288.21 485.424 z" fill="rgb(0,0,0)" transform="translate(0,0)"></path>
<path d="M 1277.12 553.366 C 1286.29 552.09 1301.88 552.987 1311.03 554.696 C 1337.91 559.94 1361.65 575.556 1377.11 598.166 C 1386.1 611.401 1396.33 632.437 1376.34 643.011 C 1355.85 653.841 1346.44 619.639 1334.95 609.512 C 1325.36 601.056 1315.59 597.446 1302.91 594.202 C 1275.09 588.565 1250.18 599.414 1234.2 622.495 C 1231.35 626.603 1229.63 631.837 1226.92 636.045 C 1224.18 640.324 1219.77 643.26 1214.77 644.139 C 1204.62 645.936 1191.81 638.067 1190.96 627.35 C 1190 615.282 1199.66 601.682 1206.54 592.4 C 1224.02 568.836 1248.43 557.198 1277.12 553.366 z" fill="rgb(161,0,255)" transform="translate(0,0)"></path>
<path d="M 615.645 821.411 C 632.391 818.745 666.75 822.501 682.501 827.814 C 705.513 835.578 730.554 848.903 752.645 859.632 C 777.465 871.686 802.608 884.126 827.023 896.977 C 837.328 902.401 838.432 905.353 841.326 915.683 C 837.199 930.79 829.313 947.336 822.895 961.888 C 816.55 976.347 810.316 990.855 804.194 1005.41 C 789.271 1040.25 774.166 1075.01 758.881 1109.69 C 752.853 1123.53 741.353 1154.25 732.992 1165.98 C 727.618 1173.52 687.504 1171.06 676.5 1170.98 L 536.642 1170.54 C 514.715 1170.41 492.831 1170.72 470.88 1170 C 456.51 1169.52 450.289 1163.7 449.703 1148.9 C 448.73 1124.3 450.29 1097.87 449.772 1073.43 C 448.312 1004.54 443.737 939.709 492.818 883.852 C 524.177 846.149 567.397 826.206 615.645 821.411 z" fill="rgb(161,0,255)" transform="translate(0,0)"></path>
<path d="M 630.676 859.435 C 664.688 858.889 687.803 872.53 717.243 886.942 L 795.169 925.238 L 742.935 1048.09 C 731.692 1074.26 718.278 1102.77 709.006 1129.31 L 652.75 1129.4 L 489.136 1129.81 L 489.169 1042.94 C 489.165 990.453 485.712 950.239 524.393 907.466 C 553.828 874.917 587.796 861.78 630.676 859.435 z" fill="rgb(0,0,0)" transform="translate(0,0)"></path>
<path d="M 1403.71 821.401 C 1405.42 821.115 1405.92 821.161 1407.59 821.039 C 1457.45 817.383 1508.59 834.779 1545.72 869.416 C 1579.62 900.89 1599.63 944.54 1601.35 990.766 C 1602.53 1026.05 1600.98 1063.45 1601.72 1099.02 C 1601.34 1117.87 1602.66 1137.14 1601.09 1155.91 C 1600.58 1161.98 1592.82 1168.92 1586.88 1169.58 C 1567.17 1171.79 1546.53 1170.97 1526.65 1170.92 L 1412.12 1170.51 C 1396.44 1170.4 1330.85 1172.69 1320.72 1167.1 C 1317.19 1165.15 1313.19 1156.44 1311.37 1152.72 C 1302.41 1134.48 1294.8 1115.28 1286.67 1096.63 C 1271.49 1062.35 1256.62 1027.94 1242.04 993.395 C 1234.64 975.957 1213.65 931.235 1209.64 915.474 C 1210.88 910.94 1211.92 906.475 1214.99 902.767 C 1219.96 896.773 1348.98 835.608 1363.49 830.236 C 1376.49 825.423 1389.97 822.892 1403.71 821.401 z" fill="rgb(161,0,255)" transform="translate(0,0)"></path>
<path d="M 1415.02 859.42 C 1416.63 859.279 1418.26 859.199 1419.88 859.179 C 1479.69 858.489 1535.47 898.841 1554.24 955.147 C 1565.31 988.345 1563.07 1016.77 1563.02 1050.95 L 1563.06 1129.99 L 1406.25 1129.8 C 1386.3 1129.82 1364.31 1130.28 1344.53 1129.33 C 1314.09 1062.27 1285.36 991.902 1254.25 925.553 C 1282.44 913.255 1310.85 898.044 1338.7 884.609 C 1368.9 870.044 1380.94 861.988 1415.02 859.42 z" fill="rgb(0,0,0)" transform="translate(0,0)"></path>
<path d="M 559.778 1231.83 L 560.849 1231.88 C 569.928 1232.25 584.049 1231.21 593.508 1230.73 L 659.797 1226.74 L 874.771 1213.1 C 891.311 1212.13 907.843 1211.03 924.365 1209.8 C 932.628 1209.21 949.123 1207.68 956.899 1208.52 C 960.705 1208.92 964.253 1210.63 966.924 1213.37 C 982.058 1228.61 957.985 1249.47 947.861 1259.89 C 936.701 1271.39 925.469 1282.81 914.375 1294.37 L 819.39 1394.64 L 719.299 1502.25 C 700.721 1522.36 680.762 1545.24 661.415 1564.12 C 710.071 1564.19 774.259 1558.18 823.304 1554.52 C 875.177 1550.66 934.831 1547.64 985.861 1541.82 L 986.912 1543.92 C 972.24 1546.11 955.077 1549.89 940.298 1552.65 L 849.59 1569.65 C 769.15 1585.23 688.139 1598.67 607.734 1614.53 C 588.721 1618.28 578.626 1596.63 587.539 1585.85 C 605.788 1563.77 627.591 1543.53 646.926 1522.05 C 702.677 1461.07 759.009 1400.62 815.915 1340.71 C 841.655 1313.39 873.044 1282.05 896.934 1253.85 L 674.136 1241.02 L 597.239 1235.85 C 586.212 1235.16 565.893 1233.46 555.906 1234.32 C 557.211 1233.49 558.496 1232.69 559.778 1231.83 z" fill="rgb(161,0,255)" transform="translate(0,0)"></path>
<path d="M 1090.96 1208.06 C 1105.81 1207.75 1122.16 1209.68 1137.08 1210.52 C 1217.72 1215.02 1298.31 1220.53 1378.91 1225.69 C 1413.86 1227.92 1448.54 1231.37 1483.59 1232.18 C 1483.45 1234.22 1477.79 1234.02 1474.8 1234.92 C 1401.57 1238.59 1328.37 1242.97 1255.21 1248.07 C 1222.93 1250.23 1184.71 1251.34 1153.14 1254.55 L 1154.04 1255.73 C 1161.35 1265.24 1175.01 1278.59 1183.68 1287.82 C 1202.11 1307.72 1220.68 1327.51 1239.39 1347.16 L 1388.57 1506.41 C 1413.13 1532.38 1438.56 1557.78 1461.62 1585.06 C 1467.59 1592.12 1464.44 1608.14 1456.77 1612.27 C 1445.93 1618.11 1419.47 1610.13 1407.24 1607.65 L 1346.39 1595.71 C 1265.74 1580.51 1184.42 1567.86 1103.96 1551.31 C 1092.15 1548.89 1079.04 1546.27 1067.21 1544.65 C 1068.82 1543.53 1069.09 1543.31 1070.81 1542.54 C 1116.49 1547.24 1163.82 1549.87 1209.7 1553.08 C 1268.37 1557.18 1330.84 1563.27 1389.48 1564.33 C 1380.06 1555.19 1369.23 1543.09 1360 1533.37 C 1336.72 1508.92 1313.66 1484.27 1290.82 1459.42 C 1245.21 1411.55 1199.9 1363.4 1154.87 1314.98 C 1140.15 1298.75 1125.2 1282.74 1110.01 1266.95 C 1100.91 1257.56 1089.03 1246.74 1081.24 1236.56 C 1072.51 1225.16 1081.57 1214.04 1090.96 1208.06 z" fill="rgb(161,0,255)" transform="translate(0,0)"></path>
<path d="M 1124.39 962.294 C 1142.87 963.622 1151.92 983.787 1138.3 996.474 C 1129.81 1004.38 1116.87 1012.16 1107.04 1018.79 C 1086.68 1032.81 1065.97 1046.32 1044.94 1059.31 C 1045.89 1076.67 1044.81 1094.95 1045.12 1112.42 C 1045.01 1126.04 1045.4 1139.19 1044.19 1152.75 C 1042.15 1175.49 1008.15 1177 1005.64 1153.57 C 1004.42 1142.13 1005.04 1130.48 1005.21 1118.94 L 1006.08 1059.94 L 987.45 1047.41 L 937.424 1015.15 C 923.955 1006.44 894.644 993.354 907.541 972.794 C 919.963 952.992 938.948 967.055 952.507 976.731 C 959.52 981.736 967.592 987.064 974.991 992.033 C 991.55 1003.02 1008.31 1013.69 1025.26 1024.06 C 1043.96 1012.73 1062.26 1000.75 1080.13 988.162 C 1091.37 980.383 1111.87 964.047 1124.39 962.294 z" fill="rgb(161,0,255)" transform="translate(0,0)"></path>
<path d="M 1483.59 1232.18 C 1485.67 1231.96 1495.14 1231.61 1496.62 1232.92 L 1496.62 1233.29 C 1495.07 1234.37 1477.86 1235.01 1474.8 1234.92 C 1477.79 1234.02 1483.45 1234.22 1483.59 1232.18 z" fill="rgb(88,46,134)" transform="translate(0,0)"></path>
<path d="M 985.861 1541.82 C 991.461 1540.54 996.796 1540.45 1002.5 1540.6 C 996.404 1542.28 993.33 1543.09 986.912 1543.92 L 985.861 1541.82 z" fill="rgb(69,36,108)" transform="translate(0,0)"></path>
<path d="M 1061.2 1541.52 C 1064.06 1541.78 1068.28 1541.62 1070.81 1542.54 C 1069.09 1543.31 1068.82 1543.53 1067.21 1544.65 C 1064.46 1544.49 1061.89 1543.96 1059.13 1543.6 L 1061.2 1541.52 z" fill="rgb(88,46,134)" transform="translate(0,0)"></path>
<path d="M 1059.13 1543.6 C 1057.78 1543.39 1051.71 1543.3 1051.41 1541.7 C 1052.7 1540.16 1059.43 1541.14 1061.2 1541.52 L 1059.13 1543.6 z" fill="rgb(69,36,108)" transform="translate(0,0)"></path>
<path d="M 555.906 1234.32 C 555.082 1234.19 552.458 1234.2 552.23 1233.13 C 553.238 1231.5 558.189 1231.86 559.778 1231.83 C 558.496 1232.69 557.211 1233.49 555.906 1234.32 z" fill="rgb(88,46,134)" transform="translate(0,0)"></path>
<metadata><recraft-signature>{"signed_by": "recraft", "signature_b64": "b7ABJRhZMItnUxVli7acHLq8AZ4qdXfrgGYUyp2s713hhBGeeSnOYak/x1XG27ISAZN7aPYL8e51S5DLI9egCA==", "signing_algo": "Ed25519", "generation_timestamp": 1781118486, "identifier": "9e5efba2-4362-4431-a80a-22d51a02948c"}</recraft-signature></metadata></svg>