<svg xmlns="http://www.w3.org/2000/svg" height="1024" preserveAspectRatio="none" style="display: block;" version="1.1" viewBox="0 0 2048 2048" width="1024">
<path d="M 0 0 L 2048 0 L 2048 2048 L 0 2048 L 0 0 z" fill="rgb(0,0,0)" transform="translate(0,0)"></path>
<path d="M 1015.43 200.154 C 1469.91 195.087 1842.5 559.303 1847.77 1013.78 C 1853.03 1468.26 1488.98 1841.01 1034.5 1846.47 C 579.746 1851.94 206.715 1487.61 201.447 1032.85 C 196.178 578.095 560.668 205.224 1015.43 200.154 z" fill="rgb(161,0,255)" transform="translate(0,0)"></path>
<path d="M 572.923 1034.91 C 602.521 1035.47 632.121 1035.87 661.723 1036.12 C 645.302 1051.75 618.845 1081.07 602.706 1098.18 C 607.517 1101.26 612.257 1103.78 617.267 1106.48 C 623.18 1101.56 634.769 1088.96 640.611 1082.98 C 655.906 1067.08 671.517 1051.48 687.434 1036.19 C 706.119 1035.66 725.231 1036.53 744.247 1035.97 C 718.128 1065.13 688.244 1092.04 662.31 1121.42 C 666.989 1126.49 668.605 1127.98 674.043 1132.23 C 705.987 1104.4 737.536 1065.19 770.927 1037.53 C 788.676 1036.64 808.498 1037.21 826.628 1036.89 C 791.393 1071.34 756.756 1106.39 722.733 1142.04 C 726.333 1147.76 728.312 1150.16 732.631 1155.29 C 744.06 1146.68 769.446 1121.13 780.158 1110.55 L 855.2 1036.71 C 869.609 1035.63 897.566 1036.8 912.931 1037.02 C 945.674 1037.56 978.421 1037.8 1011.17 1037.75 C 1011.79 1089.51 1012.01 1141.27 1011.83 1193.04 C 1002.4 1201.79 981.044 1224.86 972.005 1234.18 C 962.172 1244.33 895.066 1309.16 894.315 1315.65 C 895.681 1321.2 900.2 1324.15 904.556 1327.7 C 908.812 1324.11 914.712 1318.07 918.866 1314.06 C 951.127 1283.49 982.757 1252.26 1013.74 1220.39 C 1012.13 1236.84 1013.24 1261.73 1013.71 1278.46 C 1005.39 1283.84 990.247 1301.12 981.997 1309.4 L 915.984 1374.53 C 919.804 1378.97 924.381 1383.12 928.634 1387.18 C 956.592 1361.67 983.92 1331.09 1012.74 1304.91 C 1013.25 1322.68 1012.98 1341.67 1013.05 1359.53 C 989.347 1383.71 965.292 1406.8 942.281 1431.69 C 945.625 1437.8 948.391 1440.97 953.32 1445.62 C 972.781 1428.95 991.357 1406.17 1013.31 1387.68 C 1014.25 1417.14 1013.88 1448.43 1013.99 1478.03 C 817.798 1473.84 631.328 1323.38 586.191 1132.86 C 578.381 1099.89 575.596 1068.49 572.923 1034.91 z" fill="rgb(62,8,104)" transform="translate(0,0)"></path>
<path d="M 1006.52 572.445 C 1009.08 572.201 1009.2 571.934 1011.47 572.986 C 1012.64 578.861 1012.3 596.502 1012.35 603.485 C 1012.41 623.188 1012.61 642.89 1012.95 662.59 C 997.51 645.739 972.508 621.258 956.018 604.788 C 950.853 607.946 946.633 611.46 941.903 615.217 C 960.2 636.772 991.811 667.936 1012.08 688.667 C 1013.34 705.386 1012.8 729.209 1012.88 746.264 C 1001.44 733.294 985.949 718.909 973.498 706.575 C 958.282 691.503 942.554 675.571 926.971 660.974 C 922.686 664.242 919.916 666.964 916.083 670.663 C 925.819 684.774 944.566 702.187 957.168 714.829 C 975.6 733.237 993.616 752.055 1011.2 771.27 L 1011.53 826.014 C 999.129 814.851 982.504 796.711 970.365 784.434 C 949.784 763.849 929.012 743.455 908.052 723.255 C 902.2 727.348 899.343 729.833 894.035 734.633 C 903.298 745.367 916.843 757.594 926.979 768.121 C 954.574 796.783 986.057 826.32 1011.75 856.674 C 1013.01 906.296 1011.79 961.497 1011.71 1011.45 C 962.35 1011.87 904.169 1013.13 855.362 1011.41 C 848.275 1005.26 841.154 998.037 834.32 991.538 C 801.012 959.862 768.729 925.702 734.344 895.219 C 730.197 898.915 726.98 902.494 723.225 906.548 C 725.618 909.727 728.513 913.162 731.032 916.302 C 750.28 936.759 771.992 957.177 791.99 977.031 C 803.46 988.418 815.629 1001.44 827.465 1012.04 C 810.074 1010.35 789.505 1011.91 771.226 1011.09 C 746.278 990.832 723.895 963.186 699.681 941.609 C 690.685 933.591 682.707 924.072 673.398 915.902 C 668.567 919 664.365 922.429 659.875 925.974 C 687.856 952.476 718.13 984.174 745.104 1012.18 C 726.359 1012.3 707.614 1012.19 688.872 1011.86 C 663.94 992.247 640.505 963.521 616.149 942.331 C 610.727 946.046 608.521 948.153 603.75 952.624 C 609.373 959.189 619.956 969.231 626.309 975.654 C 638.419 987.93 650.407 1000.33 662.271 1012.84 C 633.095 1012.65 603.27 1013.13 574.043 1013.29 C 575.086 909.741 618.084 805.142 686.517 727.643 C 769.119 634.098 881.626 579.459 1006.52 572.445 z" fill="rgb(62,8,104)" transform="translate(0,0)"></path>
<path d="M 1035.88 571.633 C 1139.99 574.045 1244.67 620.776 1322.11 689.33 C 1397.08 755.73 1448.16 844.931 1467.47 943.202 C 1471.87 965.99 1473.7 990.712 1475.12 1013.83 C 1445.87 1013.27 1415.88 1013.49 1386.52 1013.2 C 1404.97 996.45 1424.78 974.678 1442.49 956.54 C 1438.86 951.002 1437.26 949.046 1432.95 944.181 C 1424.19 949.868 1411.88 962.792 1404.24 970.267 C 1389.81 984.384 1375.98 999.316 1360.99 1012.9 C 1341.88 1012.93 1322.74 1011.92 1303.6 1012.71 C 1311.58 1005.98 1327.49 988.739 1335.61 980.525 C 1350.66 965.294 1369.82 948.213 1383.78 932.558 C 1378.93 926.886 1377.28 925.426 1371.46 920.936 C 1339.71 951.169 1308.88 982.105 1276.8 1011.86 L 1219.89 1012.02 C 1228.12 1005.01 1244.28 987.616 1252.41 979.409 L 1316.33 915.395 C 1319.18 912.495 1319.56 912.508 1319.52 908.743 C 1317.41 904.246 1312.66 901.084 1308.66 897.783 C 1284.15 921.488 1260.32 945.166 1236.32 969.377 C 1222.14 983.683 1206.3 997.159 1192.27 1011.73 C 1141.09 1012.15 1087.28 1011.97 1036.13 1011.27 L 1035.96 856.447 C 1042.3 848.499 1050.69 841.321 1057.37 833.644 C 1085.98 800.736 1129.84 768.228 1154.05 732.598 C 1149 727.703 1147.44 726.62 1141.53 722.815 C 1130.34 730.582 1122.28 741.362 1112.39 750.349 C 1085.76 774.552 1062.38 803.726 1036.05 827.83 L 1036.06 772.233 C 1052.46 757.604 1073.77 733.506 1089.64 717.391 C 1101.37 705.468 1123.65 683.609 1133.56 671.28 C 1128.66 665.985 1127.09 664.545 1121.3 660.256 C 1111.01 668.74 1096.73 683.993 1087.04 693.822 C 1069.89 711.135 1052.84 728.55 1035.89 746.065 C 1036.18 727.445 1035.98 708.305 1036.02 689.642 L 1074.75 648.486 C 1085.33 637.452 1097.12 626.193 1106.85 614.544 C 1102.37 609.807 1099.54 607.289 1094.55 603.079 C 1085.26 611.743 1074.88 622.94 1065.61 632.103 C 1056.85 640.748 1043.66 653.281 1036.09 662.442 L 1035.88 571.633 z" fill="rgb(62,8,104)" transform="translate(0,0)"></path>
<path d="M 1387.36 1035.97 C 1416.38 1036.34 1446 1036.06 1475.07 1036.09 C 1473.67 1060.07 1470.63 1083.93 1465.97 1107.5 C 1441.57 1225.25 1365.31 1335.82 1265.01 1401.85 C 1190.42 1447.75 1123.58 1474.71 1034.4 1477.39 C 1034.72 1448.18 1034.88 1418.96 1034.87 1389.74 C 1055.62 1407.79 1073.21 1425.09 1092.86 1444.36 C 1098.42 1440.42 1101.49 1437.67 1106.56 1433.09 C 1086.31 1413.73 1054.8 1378.85 1034.93 1362.51 C 1034.97 1343.5 1036.01 1324.53 1035.78 1305.56 C 1050.6 1320 1065.27 1334.57 1079.82 1349.28 C 1092.1 1361.69 1105.01 1375.36 1118.63 1386.12 C 1124.04 1381.21 1125.7 1379.22 1130.23 1373.48 C 1114.83 1357.78 1098.2 1343.14 1082.42 1326.38 C 1071.61 1314.89 1045.14 1286.88 1034.86 1278.43 L 1035.17 1220.93 C 1054.59 1242.34 1078.93 1263.39 1099.68 1283.89 C 1113.16 1297.22 1130.15 1317.35 1144.55 1328.51 C 1150.12 1323.56 1152.55 1320.99 1157.43 1315.33 C 1134.95 1290.81 1106.06 1264.64 1082.53 1239.99 C 1072.49 1229.46 1045.66 1201.21 1036.28 1193.33 C 1035.28 1142.36 1036.12 1088 1036.57 1036.9 C 1079.74 1037.26 1122.92 1037.13 1166.08 1036.51 L 1191.68 1036.07 C 1231.67 1073.88 1272.91 1115.29 1311.78 1154.22 C 1316.3 1149.6 1319.21 1145.89 1323.21 1140.83 C 1318.22 1134.69 1312.38 1128.63 1306.76 1123.03 C 1277.99 1094.32 1249.63 1063.98 1220.17 1036.04 C 1237.35 1036.78 1256.85 1036.06 1274.54 1036.51 C 1307.79 1066.52 1339.78 1101.19 1373.11 1132.38 C 1377.15 1128.63 1381.41 1124.07 1385.29 1120.08 C 1373.56 1106.83 1357.8 1092.29 1345 1079.73 C 1330.34 1065.36 1315.67 1050.18 1300.81 1036.18 C 1319.86 1036.7 1341.07 1036.11 1360.28 1036 C 1380.98 1057.68 1409.61 1085.96 1431.4 1106.37 C 1437.13 1101.43 1438.44 1099.71 1442.93 1093.81 C 1440.03 1089.99 1436.22 1085.78 1432.77 1082.44 C 1417.14 1067.34 1402.31 1051.73 1387.36 1035.97 z" fill="rgb(62,8,104)" transform="translate(0,0)"></path>
<path d="M 1613.3 1094.69 C 1620.83 1100.38 1636.27 1116.76 1643.66 1124.23 C 1628.36 1198.49 1615.39 1245.87 1577.11 1313.36 C 1573.52 1319.1 1569.76 1326.4 1566.46 1332.44 C 1565.96 1280.57 1562.51 1229.36 1562.03 1178.68 C 1579.33 1149.72 1595.93 1125.28 1613.3 1094.69 z" fill="rgb(62,8,104)" transform="translate(0,0)"></path>
<path d="M 1566.55 720.383 C 1571.94 724.829 1580.54 741.79 1584.05 748.539 C 1612.24 801.91 1631.96 859.336 1642.52 918.761 L 1625.33 937.014 C 1620.06 942.333 1616.78 945.925 1612.04 951.722 C 1594.22 924.685 1579.12 899.761 1561.95 872.764 C 1561.85 824.747 1565.3 769.36 1566.55 720.383 z" fill="rgb(62,8,104)" transform="translate(0,0)"></path>
<path d="M 430.232 1093.71 C 431.838 1094.27 481.527 1171.02 486.075 1178.05 C 484.487 1227.83 478.538 1281.87 478.9 1331.3 L 472.049 1317.28 C 458.675 1290.37 445.07 1263.1 434.274 1235.05 C 419.538 1196.76 409.891 1159.06 402.249 1118.89 C 412.107 1110.63 420.833 1102.48 430.232 1093.71 z" fill="rgb(62,8,104)" transform="translate(0,0)"></path>
<path d="M 477.411 726.7 C 478.542 732.158 479.775 760.603 480.205 767.809 C 482.468 801.941 484.108 836.113 485.124 870.305 C 470.086 892.115 443.867 934.223 431.033 957.403 L 420.313 947.709 C 414.75 942.551 408.766 937.498 403.015 932.517 C 417.311 845.525 435.532 801.995 477.411 726.7 z" fill="rgb(62,8,104)" transform="translate(0,0)"></path>
<path d="M 1175.12 1563.02 C 1186.02 1562.34 1212.1 1565.87 1224.29 1566.44 C 1256.42 1567.94 1289.34 1571.19 1321.44 1572.26 C 1288.36 1592.79 1252.15 1608.53 1215.53 1621.5 C 1184.35 1631.57 1156.69 1638.15 1124.77 1645.01 C 1113.15 1635.59 1104.38 1625.56 1094.36 1614.55 C 1099 1611.93 1103.4 1608.9 1107.83 1605.94 C 1129.95 1591.17 1153.19 1578.07 1175.12 1563.02 z" fill="rgb(62,8,104)" transform="translate(0,0)"></path>
<path d="M 927.663 406.158 C 932.11 407.085 951.355 431.13 956.097 436.322 C 951.084 438.938 945.38 442.379 940.588 445.413 C 918.194 459.593 894.98 473.404 873.165 488.415 C 835.807 486.329 800.844 483.257 763.755 480.735 C 751.528 479.811 739.312 478.75 727.109 477.553 C 758.198 463.694 787.695 448.159 819.612 435.773 C 855.705 421.768 890.093 414.467 927.663 406.158 z" fill="rgb(62,8,104)" transform="translate(0,0)"></path>
<path d="M 869.229 1563.57 L 870.99 1563.32 C 892.576 1578.92 933.693 1600.21 952.058 1616.73 C 942.662 1626.22 933.375 1635.83 924.198 1645.54 C 894.388 1638.77 864.924 1630.56 835.913 1620.93 C 793.253 1605.9 763.216 1592.15 723.602 1571.64 C 767.507 1565.09 824.575 1567.47 869.229 1563.57 z" fill="rgb(62,8,104)" transform="translate(0,0)"></path>
<path d="M 1119.5 407.654 C 1126.15 408.017 1150.23 413.888 1158.11 415.655 C 1185.93 421.9 1216.09 429.448 1242.59 440.092 C 1268.8 450.62 1294.49 464.273 1320.52 475.705 C 1310.14 477.577 1297.36 478.486 1286.76 479.251 C 1264.87 481.574 1241.5 482.506 1219.48 484.251 C 1205.79 485.335 1188.86 485.252 1175.68 488.179 C 1149.11 470.182 1120.22 453.991 1093.05 436.567 L 1119.5 407.654 z" fill="rgb(62,8,104)" transform="translate(0,0)"></path>
<path d="M 790.274 599.94 L 790.85 600.105 C 792.993 602.011 797.727 612.029 799.272 615.058 C 781.254 626.078 760.707 638.322 744.159 650.958 C 649.914 721.981 585.571 825.622 563.725 941.592 C 561.581 952.783 559.137 966.536 558.191 977.85 C 557.178 989.952 557.591 1001.57 555.976 1013.88 C 553.575 1015.54 552.811 1014.91 549.25 1014.94 C 546.971 1015.06 543.888 1015.5 541.666 1015.13 C 540.108 1014.87 539.058 1014.27 538.266 1012.94 C 533.973 1005.73 545.38 938.577 547.973 926.625 C 572.617 813.033 636.1 715.587 726.959 643.699 C 747.127 627.743 768.693 613.87 790.274 599.94 z" fill="rgb(62,8,104)" transform="translate(0,0)"></path>
<path d="M 1527.28 1034.15 L 1545.81 1034.31 C 1547.33 1049.74 1547.29 1065.62 1547.92 1081.12 C 1549.22 1112.82 1549.61 1144.87 1552.1 1176.48 C 1550.05 1180.76 1546.99 1185.27 1544.5 1189.39 C 1526.79 1218.7 1508.34 1247.57 1492.15 1277.77 C 1490.88 1280.14 1491.76 1279.76 1489.33 1280.4 C 1480.85 1273.52 1472.01 1266.04 1463.04 1259.92 C 1472.52 1240.88 1482.97 1220.3 1490.92 1200.68 C 1511.51 1149.87 1524.59 1088.95 1527.28 1034.15 z" fill="rgb(62,8,104)" transform="translate(0,0)"></path>
<path d="M 1259.37 1464.02 C 1262.84 1465.23 1276.4 1487.06 1279.39 1491.59 C 1243.64 1511.55 1209.76 1533.03 1174.65 1553.95 C 1139.29 1553.83 1096.25 1549.58 1060.25 1547.41 C 1052.45 1546.7 1041.15 1546.85 1033.08 1546.73 L 1033.01 1528.2 C 1113.92 1527.65 1188.94 1501.94 1259.37 1464.02 z" fill="rgb(62,8,104)" transform="translate(0,0)"></path>
<path d="M 783.807 1462.34 C 798.91 1469.75 811.276 1477.53 827.728 1484.94 C 889.785 1512.87 947.362 1525.09 1014.86 1528.81 C 1014.9 1534.74 1014.71 1540.93 1014.62 1546.88 C 1009 1547.02 1002.91 1547.48 997.248 1547.81 L 874.865 1553.4 C 840.14 1534.11 802.615 1510.32 767.393 1489.98 L 783.807 1462.34 z" fill="rgb(62,8,104)" transform="translate(0,0)"></path>
<path d="M 1486.88 766.866 C 1490.4 770.106 1506.17 800.452 1509.77 806.338 C 1523.77 829.171 1537.04 853.547 1551.09 876.246 C 1550.49 883.153 1550.2 890.397 1550.12 897.344 C 1549.65 937.551 1546.55 977.73 1545.74 1017.91 C 1540.32 1017.04 1534.45 1016.87 1528.94 1016.55 L 1527.09 1016.23 C 1525.46 1013.4 1522.1 967.343 1521.2 960.001 C 1520.02 951.078 1518.59 942.19 1516.91 933.349 C 1507.38 881.152 1487.79 831.475 1463.72 784.346 C 1471.48 778.577 1479.2 772.751 1486.88 766.866 z" fill="rgb(62,8,104)" transform="translate(0,0)"></path>
<path d="M 557.024 769.568 C 564.738 774.163 575.237 781.718 582.976 786.948 C 557.607 830.13 534.808 896.78 526.889 945.985 C 523.5 967.046 521.507 993.938 518.79 1015.81 C 515.761 1016.83 505.131 1017.66 501.487 1018.02 C 499.866 970.374 496.137 918.651 496.026 871.414 C 517.112 839.545 537.499 802.845 557.024 769.568 z" fill="rgb(62,8,104)" transform="translate(0,0)"></path>
<path d="M 1171.67 496.502 C 1172.53 496.289 1174.19 496.217 1174.92 496.639 C 1210.07 517.083 1244.33 539.367 1279.63 559.561 L 1261.56 584.403 C 1235.02 569.436 1205.03 557.022 1176.26 547.025 C 1123.06 530.084 1086.91 523.656 1030.83 520.03 L 1030.65 506.164 C 1045.4 506.029 1068.52 503.525 1083.8 502.417 L 1171.67 496.502 z" fill="rgb(62,8,104)" transform="translate(0,0)"></path>
<path d="M 502.162 1031.66 C 507.945 1031.89 513.722 1032.27 519.485 1032.8 C 525.536 1119.37 538.199 1185.03 582.278 1261.66 L 568.33 1271.8 L 557.362 1280.44 C 544.935 1255.47 512.848 1196.67 495.969 1177.94 C 495.547 1134.57 499.19 1075.13 502.162 1031.66 z" fill="rgb(62,8,104)" transform="translate(0,0)"></path>
<path d="M 874.499 496.897 C 878.379 496.604 883.612 497.284 887.604 497.469 C 929.769 499.432 971.92 505.371 1014.11 506.089 C 1014.6 510.796 1014.76 516.062 1015.01 520.834 C 968.794 520.605 916.087 532.915 872.251 546.427 C 838.411 558.259 818.24 568.33 786.432 584.395 C 780.909 575.953 774.901 567.837 768.44 560.09 C 804.719 538.924 839.239 519.869 874.499 496.897 z" fill="rgb(62,8,104)" transform="translate(0,0)"></path>
<path d="M 1458.72 1268.69 C 1467.42 1276.18 1476.32 1283.45 1485.39 1290.5 C 1466.62 1328.27 1438.12 1375 1416.93 1412.92 C 1415.29 1411.8 1412.98 1409.86 1411.35 1408.58 C 1399.83 1397.64 1388.58 1386.42 1377.61 1374.92 C 1407.92 1339.12 1435.01 1309.7 1458.72 1268.69 z" fill="rgb(62,8,104)" transform="translate(0,0)"></path>
<path d="M 1338.41 492.617 C 1341.82 496.257 1354.63 520.909 1357.9 526.96 C 1374.72 558.103 1391.35 589.354 1407.77 620.71 C 1397.87 615.389 1387.91 610.174 1377.9 605.066 C 1349.33 590.849 1319.81 572.839 1291.98 556.627 C 1303.6 538.728 1325.5 510.144 1338.41 492.617 z" fill="rgb(62,8,104)" transform="translate(0,0)"></path>
<path d="M 1369.05 1381.66 C 1373.54 1383.52 1403.62 1413.25 1409.56 1418.97 C 1392.18 1425.61 1379.62 1433.98 1363.59 1443.14 L 1303.29 1477.62 L 1288.64 1486.18 L 1270.54 1457.48 C 1298.99 1442.26 1344.87 1403.5 1369.05 1381.66 z" fill="rgb(62,8,104)" transform="translate(0,0)"></path>
<path d="M 709.062 493.628 C 724.133 514.655 739.519 535.454 755.214 556.018 C 726.257 573.279 696.907 589.873 667.189 605.788 L 636.116 623.857 C 659.997 580.206 684.314 536.794 709.062 493.628 z" fill="rgb(62,8,104)" transform="translate(0,0)"></path>
<path d="M 554.993 1294.11 C 557.509 1297.08 572.389 1324.07 575.161 1328.92 C 590.814 1356.28 606.65 1383.53 622.668 1410.68 C 608.6 1402.5 593.74 1394.94 579.29 1387.39 C 549.559 1372.46 521.978 1356.7 491.51 1342.48 C 510.414 1326.56 534.834 1309.17 554.993 1294.11 z" fill="rgb(62,8,104)" transform="translate(0,0)"></path>
<path d="M 1406.84 1429.92 L 1407.72 1431.42 C 1402.21 1443.99 1389.31 1463.66 1382.4 1476.55 C 1367.62 1504.06 1352.77 1530.79 1336.67 1557.56 C 1330.38 1549.78 1324.6 1541.19 1318.85 1532.97 C 1310.33 1520.49 1302 1507.18 1293.8 1494.43 C 1330.25 1473 1369.62 1449.95 1406.84 1429.92 z" fill="rgb(62,8,104)" transform="translate(0,0)"></path>
<path d="M 674.555 1381.65 C 700.226 1406.1 743.852 1440.89 774.625 1458.51 C 769.535 1467.61 764.249 1476.11 758.771 1484.96 L 745.491 1478.05 C 710.094 1459.6 672.44 1437.95 637.531 1418.47 C 647.266 1406.62 663.146 1391.81 674.555 1381.65 z" fill="rgb(62,8,104)" transform="translate(0,0)"></path>
<path d="M 1286.95 564.083 C 1301.69 570.899 1320.55 582.732 1334.89 590.943 C 1360.02 605.486 1385.73 618.988 1411.97 631.415 C 1404.38 640.595 1393.41 650.594 1384.61 658.722 C 1380.85 661.906 1377.18 665.334 1373.53 668.651 C 1340.13 636.495 1310.04 612.897 1270.25 589.41 C 1276.4 581.633 1282.06 572.708 1286.95 564.083 z" fill="rgb(62,8,104)" transform="translate(0,0)"></path>
<path d="M 628.636 638.452 C 634.292 641.793 659.566 668.968 665.924 675.467 C 633.395 707.493 616.495 732.725 591.994 770.352 L 586.99 778.464 C 578.69 773.095 570.136 767.046 561.933 761.449 C 565.361 755.731 568.754 749.151 571.87 743.234 C 590.367 708.108 610.251 673.617 628.636 638.452 z" fill="rgb(62,8,104)" transform="translate(0,0)"></path>
<path d="M 1428.73 641.957 C 1437.84 645.598 1446.87 650.099 1455.55 654.697 C 1488.6 672.214 1521.3 689.022 1553.83 707.54 C 1543.11 714.637 1535.02 720.32 1524.94 728.236 C 1514.63 737.028 1501.6 746.498 1490.71 755.334 C 1469.84 719.484 1448.86 678.916 1428.73 641.957 z" fill="rgb(62,8,104)" transform="translate(0,0)"></path>
<path d="M 643.889 1431.81 C 652.805 1436.2 667.263 1445.07 676.476 1450.18 L 753.299 1492.74 C 744.716 1507.07 735.994 1521.32 727.135 1535.49 C 723.601 1540.02 713.867 1555.92 710.304 1561.42 C 691.478 1527.82 675.325 1492.11 657.075 1458.14 C 652.534 1449.68 647.71 1440.56 643.889 1431.81 z" fill="rgb(62,8,104)" transform="translate(0,0)"></path>
<path d="M 759.322 564.842 C 762.708 565.905 775.268 583.452 779.656 588.315 C 740.698 610.94 704.484 637.988 671.733 668.923 L 665.351 662.772 C 655.569 652.66 646.423 643.323 636.195 633.677 C 673.866 615.064 722.207 586.079 759.322 564.842 z" fill="rgb(62,8,104)" transform="translate(0,0)"></path>
<path d="M 1418.1 638.853 C 1419.57 639.907 1477.79 749.474 1482.41 758.889 C 1474.44 763.909 1466.64 769.195 1459.02 774.738 L 1452.71 765.569 C 1436.49 741.207 1418.67 717.953 1399.36 695.962 C 1393.81 689.53 1385.57 679.49 1379.16 674.324 C 1389.01 664.386 1407.45 647.579 1418.1 638.853 z" fill="rgb(62,8,104)" transform="translate(0,0)"></path>
<path d="M 612.873 645.904 C 613.225 646.432 613.577 646.961 613.93 647.489 C 593.935 683.274 572.274 720.31 554.091 756.795 C 541.565 748.693 529.114 740.475 516.739 732.143 C 507.514 725.818 497.249 719.416 487.835 713.225 C 529.032 689.901 570.721 667.455 612.873 645.904 z" fill="rgb(62,8,104)" transform="translate(0,0)"></path>
<path d="M 586.2 1270.91 C 589.376 1273.34 600.83 1293.24 604.309 1298.18 C 623.301 1325.16 644.248 1352.28 668.185 1375.05 C 658.999 1384.7 650.503 1392.62 640.693 1401.67 L 632.483 1409.62 C 609.223 1370.84 584.69 1327.69 562.716 1288.25 C 570.335 1283.19 578.805 1276.48 586.2 1270.91 z" fill="rgb(62,8,104)" transform="translate(0,0)"></path>
<path d="M 715.741 485.059 C 730.01 487.219 753.332 488.017 768.495 489.095 L 860.271 496.234 C 848.165 503.99 836.725 510.506 824.193 517.592 C 804.017 529.29 783.744 540.82 763.375 552.18 C 746.504 530.528 730.61 508.132 715.741 485.059 z" fill="rgb(62,8,104)" transform="translate(0,0)"></path>
<path d="M 628.937 1425.69 C 632.199 1427.59 689.624 1540.73 695.485 1553.36 L 670.558 1536.7 C 635.089 1513.03 615.788 1499.05 586.597 1467.73 C 599.146 1453.74 615.143 1438.39 628.937 1425.69 z" fill="rgb(62,8,104)" transform="translate(0,0)"></path>
<path d="M 1326.78 484.428 L 1330.01 484.142 L 1331.01 485.154 C 1327.93 492.996 1292.05 542.663 1285.04 551.985 C 1267.48 543.769 1243.48 528.227 1226.5 517.707 L 1185.26 494.32 C 1205.48 494.387 1227.6 492.456 1247.9 491.018 C 1274.24 489.411 1300.54 487.214 1326.78 484.428 z" fill="rgb(62,8,104)" transform="translate(0,0)"></path>
<path d="M 1262.89 603.496 C 1316.34 633.421 1366.46 678.369 1403.97 726.546 C 1417.76 744.263 1432.11 763.044 1442.21 783.142 C 1437.78 787.496 1435.53 790.305 1431.67 795.133 C 1419.59 780.203 1406.38 757.958 1393.13 741.102 C 1354.51 691.989 1305.61 649.702 1251.98 617.846 C 1255.77 613.569 1259.49 608.164 1262.89 603.496 z" fill="rgb(62,8,104)" transform="translate(0,0)"></path>
<path d="M 1493.36 1295.87 C 1512.42 1310.46 1531.25 1325.32 1549.87 1340.45 C 1546.26 1342.25 1542.81 1344.54 1539.39 1346.66 C 1516.59 1360.79 1492.92 1373.26 1469.32 1386.01 L 1430.95 1408.12 C 1450.05 1375.14 1476.36 1329.73 1493.36 1295.87 z" fill="rgb(62,8,104)" transform="translate(0,0)"></path>
<path d="M 1351.16 495.409 C 1355.21 496.986 1367.04 505.402 1371.09 508.227 C 1404.8 531.723 1432.62 556.907 1462.05 585.446 L 1441.74 605.62 L 1420.35 625.453 C 1396.87 582.328 1373.81 538.978 1351.16 495.409 z" fill="rgb(62,8,104)" transform="translate(0,0)"></path>
<path d="M 1555.31 719.007 L 1555.67 719.119 C 1556 719.561 1556.33 720.004 1556.66 720.446 C 1555.57 760.438 1552.85 820.934 1552.05 858.65 C 1544.21 847.224 1537.31 835.361 1530.22 823.462 C 1517.7 803.371 1505.78 782.91 1494.48 762.107 C 1515.88 748.234 1532.32 733.205 1555.31 719.007 z" fill="rgb(62,8,104)" transform="translate(0,0)"></path>
<path d="M 615.395 1248.93 C 653.736 1321.53 721.074 1388.99 792.856 1428.59 C 790.305 1432.65 786.632 1439.47 782.949 1441.89 L 780.275 1441.06 C 725.409 1411.56 668.021 1354.63 630.479 1305.39 C 618.974 1290.3 610.586 1274.63 600.059 1260.51 L 599.346 1259.57 L 615.395 1248.93 z" fill="rgb(62,8,104)" transform="translate(0,0)"></path>
<path d="M 495.161 1193.46 C 502.316 1199.31 543.972 1274.75 549.43 1286.32 C 539.394 1294.29 528.262 1302.43 517.999 1310.24 C 507.583 1318.38 498.131 1325.69 487.288 1333.23 C 489.375 1286.61 492 1240.02 495.161 1193.46 z" fill="rgb(62,8,104)" transform="translate(0,0)"></path>
<path d="M 1430.34 1248.08 C 1434.8 1251.73 1438.18 1255.52 1442.12 1259.7 C 1434.22 1275.32 1424.36 1289.25 1414.38 1303.53 C 1374.91 1360.06 1321.22 1405.29 1263.41 1442.47 L 1261.69 1442.62 C 1258.33 1439.27 1255.13 1433.39 1252.57 1429.2 C 1330.65 1381.17 1383.45 1327 1430.34 1248.08 z" fill="rgb(62,8,104)" transform="translate(0,0)"></path>
<path d="M 496.808 1356.81 C 504.722 1358.89 519.275 1366.81 527.027 1370.79 C 544.23 1379.52 561.283 1388.54 578.18 1397.84 C 591.565 1405.19 608.353 1415.07 622.191 1420.41 C 615.929 1426.65 609.214 1432.74 602.731 1438.77 C 594.926 1446.17 587.82 1452.81 579.626 1459.82 C 558.781 1441.36 536.835 1414.17 520.205 1391.5 C 512.384 1380.83 504.852 1368.04 496.808 1356.81 z" fill="rgb(62,8,104)" transform="translate(0,0)"></path>
<path d="M 761.874 1498.03 C 794.886 1518.09 823.345 1533.69 856.479 1555.15 C 840.71 1555.33 824.538 1556.3 808.751 1557.06 C 779.604 1558.94 750.442 1560.6 721.27 1562.04 C 732.755 1542.19 749.315 1517.74 761.874 1498.03 z" fill="rgb(62,8,104)" transform="translate(0,0)"></path>
<path d="M 581.055 589.809 C 588.156 594.224 615.941 623.488 620.841 630.974 C 589.133 648.078 556.891 664.172 525.468 681.918 C 515.385 688.051 507.502 692.149 496.665 696.689 C 506.077 685.009 516.887 667.873 526.255 655.229 C 543.312 632.437 561.606 610.597 581.055 589.809 z" fill="rgb(62,8,104)" transform="translate(0,0)"></path>
<path d="M 1284.55 1499.96 C 1293.21 1508.39 1318.63 1551.41 1325.52 1563.07 C 1298.09 1560.26 1264.62 1559.29 1236.75 1557.79 C 1221.22 1556.61 1205.68 1555.6 1190.13 1554.74 C 1221.3 1537.31 1253.65 1518.03 1284.55 1499.96 z" fill="rgb(62,8,104)" transform="translate(0,0)"></path>
<path d="M 1547.08 1354.02 C 1547.93 1354.79 1547.51 1354.23 1547.79 1355.98 C 1529.83 1390.99 1492.76 1430.42 1465.58 1458.9 C 1458.82 1452.93 1451.86 1445.97 1445.31 1439.67 L 1425.11 1420.61 C 1462.65 1402.94 1509.78 1374.82 1547.08 1354.02 z" fill="rgb(62,8,104)" transform="translate(0,0)"></path>
<path d="M 693.977 499.035 C 694.366 499.421 694.389 500.053 694.551 500.577 C 671.356 541.042 648.663 581.794 626.477 622.822 C 620.104 616.344 613.822 609.777 607.633 603.123 C 600.852 596.42 594.157 589.629 587.551 582.754 C 600.648 572.289 614.371 558.79 627.678 547.746 C 648.964 530.429 671.091 514.173 693.977 499.035 z" fill="rgb(62,8,104)" transform="translate(0,0)"></path>
<path d="M 536.616 1032.91 C 543.282 1032.93 549.098 1033.36 555.735 1033.84 C 556.419 1096.98 573.153 1170.15 603.264 1226.47 C 604.956 1229.63 609.766 1238.01 609.145 1241.15 L 605.567 1243.36 C 602.312 1245.35 598.613 1248.02 595.408 1250.2 C 556.378 1181.38 540.417 1111.73 536.616 1032.91 z" fill="rgb(62,8,104)" transform="translate(0,0)"></path>
<path d="M 487.409 724.557 C 502.601 732.16 533.657 754.4 549.462 764.565 C 538.706 783.512 527.116 802.287 516.219 821.507 C 509.195 833.432 501.981 845.244 494.58 856.939 C 491.703 812.839 489.312 768.709 487.409 724.557 z" fill="rgb(62,8,104)" transform="translate(0,0)"></path>
<path d="M 1420.65 1429.65 C 1432.76 1440.43 1446.95 1453.46 1457.95 1465.26 C 1433.68 1490.37 1400.61 1521.58 1371.97 1541.15 C 1363.21 1546.75 1355.66 1550.8 1347.95 1557.85 C 1372.34 1517.53 1397.97 1471.25 1420.65 1429.65 z" fill="rgb(62,8,104)" transform="translate(0,0)"></path>
<path d="M 1468.88 591.815 C 1501.14 624.885 1524.56 655.528 1549.79 693.667 C 1539.72 688.728 1529.42 683.311 1519.4 678.2 C 1487.5 662.483 1458.85 646.499 1426.31 631.411 C 1439.12 618.721 1455.43 603.901 1468.88 591.815 z" fill="rgb(62,8,104)" transform="translate(0,0)"></path>
<path d="M 1551.49 1195.82 C 1553.73 1198.2 1556.72 1316.81 1557.05 1332.1 C 1546.85 1325.41 1537.38 1317.74 1527.78 1310.22 L 1498.49 1287.26 C 1512.22 1260.14 1535.54 1222.62 1551.49 1195.82 z" fill="rgb(62,8,104)" transform="translate(0,0)"></path>
<path d="M 1492.16 1035.08 L 1511.74 1035 C 1499.97 1118.43 1492.49 1171.09 1450.46 1246.66 C 1449.72 1248.13 1450.27 1247.45 1448.57 1248.49 C 1446.02 1247.45 1438.22 1240.59 1434.85 1238.1 C 1467.49 1172.67 1490.11 1109.21 1492.16 1035.08 z" fill="rgb(62,8,104)" transform="translate(0,0)"></path>
<path d="M 1030.44 536.765 C 1109.68 537.762 1182.47 562.178 1252.36 597.613 L 1246.06 605.635 L 1243.33 609.623 C 1236.91 612.551 1226.3 603.136 1220.09 600.239 C 1155.7 570.211 1101.14 558.139 1030.4 555.298 L 1030.44 536.765 z" fill="rgb(62,8,104)" transform="translate(0,0)"></path>
<path d="M 1449.22 794.882 C 1456.46 805.271 1464.85 825.369 1470.05 837.242 C 1496.1 896.721 1504.95 949.878 1510.01 1014.14 L 1496.75 1014 C 1494.18 1014.01 1494.87 1014.05 1492.36 1013.45 C 1490.51 1008.69 1489.35 981.729 1488.62 974.899 C 1482.46 916.946 1461.97 856.606 1436.53 804.375 L 1449.22 794.882 z" fill="rgb(62,8,104)" transform="translate(0,0)"></path>
<path d="M 801.087 1433.53 C 859.353 1469.06 946.627 1493.53 1014.59 1494.38 C 1014.5 1500.14 1015.54 1503.21 1014.01 1508.87 C 1011.66 1511.42 1013.16 1510.42 1008.52 1510.71 C 934.132 1506.39 855.909 1488.11 792.239 1448.03 C 794.903 1443.32 798.211 1438.19 801.087 1433.53 z" fill="rgb(62,8,104)" transform="translate(0,0)"></path>
<path d="M 1003.3 537.415 C 1006.33 537.052 1012.57 537.017 1015.86 536.893 L 1015.86 555.9 C 948.208 554.173 872.849 577.369 812.566 606.807 C 809.876 608.44 808.83 609.498 805.738 609.177 C 802.399 606.649 800.841 599.299 799.339 594.737 C 869.601 559.405 924.838 543.025 1003.3 537.415 z" fill="rgb(62,8,104)" transform="translate(0,0)"></path>
<path d="M 1240.95 1434.93 C 1243.8 1437.09 1248.38 1446.21 1250.29 1449.72 C 1244.37 1452.37 1238.11 1456.32 1232.24 1459.37 C 1175.09 1489.08 1105.96 1507.42 1041.75 1510.22 C 1038.65 1510.45 1037.13 1510.87 1034.34 1509.52 C 1031.84 1506.19 1032.84 1499.08 1033 1494.55 C 1109.55 1489.46 1174.12 1475.17 1240.95 1434.93 z" fill="rgb(62,8,104)" transform="translate(0,0)"></path>
<path d="M 486.63 883.841 C 489.073 887.356 490.875 995.574 491.588 1010.86 C 483.706 1003.55 475.773 996.296 467.791 989.099 C 458.646 980.559 448.386 971.793 438.953 963.508 C 453.476 938.342 473.69 908.207 486.63 883.841 z" fill="rgb(62,8,104)" transform="translate(0,0)"></path>
<path d="M 490.596 1039.91 C 492.961 1043.95 488.002 1145.23 487.901 1161.53 C 481.444 1152.73 474.368 1141.68 468.175 1132.5 C 459.678 1118.91 447.143 1100.24 437.77 1087.52 C 455.146 1071.58 473.066 1056.06 490.596 1039.91 z" fill="rgb(62,8,104)" transform="translate(0,0)"></path>
<path d="M 961.598 442.879 C 964.729 444.061 1002.31 489.855 1008.29 497.017 L 936.754 492.785 C 920.297 492.487 903.248 489.547 884.916 489.485 C 902.181 481.347 942.449 454.429 961.598 442.879 z" fill="rgb(62,8,104)" transform="translate(0,0)"></path>
<path d="M 1086.59 442.608 C 1089.64 443.699 1095.57 447.988 1098.55 449.965 C 1118.92 463.478 1139.97 475.832 1160.73 488.731 C 1142.89 489.902 1125.06 491.205 1107.24 492.639 C 1084.39 494.628 1061.5 496.084 1038.59 497.008 C 1053.92 478.667 1070.55 460.389 1086.59 442.608 z" fill="rgb(62,8,104)" transform="translate(0,0)"></path>
<path d="M 1555.95 1040.41 C 1563.94 1044.6 1598.33 1079.06 1606.78 1087.38 L 1580.1 1131.71 C 1574.03 1141.8 1567.77 1150.71 1561.05 1160.36 C 1561.1 1154.75 1560.9 1149.12 1560.56 1143.53 C 1558.44 1109.21 1558.11 1074.7 1555.95 1040.41 z" fill="rgb(62,8,104)" transform="translate(0,0)"></path>
<path d="M 983.247 1558.43 C 989.612 1557.95 998.525 1558.1 1005.09 1558.02 C 990.195 1573.42 974.502 1592.97 959.202 1609.33 L 931.122 1591.11 C 916.217 1581.83 902.393 1570.78 887.128 1562.05 C 915.853 1562.3 954.11 1559.85 983.247 1558.43 z" fill="rgb(62,8,104)" transform="translate(0,0)"></path>
<path d="M 1041.29 1556.92 C 1080.26 1556.83 1120.81 1561.64 1160.47 1562.29 L 1130.52 1580.86 C 1116.46 1590.15 1102.26 1599.23 1087.94 1608.09 C 1072.1 1591.3 1056.55 1574.24 1041.29 1556.92 z" fill="rgb(62,8,104)" transform="translate(0,0)"></path>
<path d="M 1560.25 892.645 C 1566.62 897.89 1597.44 949.75 1603.54 959.755 C 1595.34 969.126 1587.54 976.875 1578.72 985.657 C 1571.23 993.118 1563.05 1000.87 1556.44 1009.05 C 1559.19 975.393 1559.19 927.428 1560.25 892.645 z" fill="rgb(62,8,104)" transform="translate(0,0)"></path>
<path d="M 1028.73 1559.86 C 1037.59 1565.9 1069.93 1602.18 1079.64 1612.72 L 1059.31 1626.67 C 1048.82 1633.78 1037.89 1640.26 1027.06 1646.85 C 1027.05 1627.73 1027.2 1608.62 1027.51 1589.5 C 1027.67 1581.28 1027.62 1567.53 1028.73 1559.86 z" fill="rgb(62,8,104)" transform="translate(0,0)"></path>
<path d="M 1027.1 406.838 C 1040.04 412.161 1066.8 429.624 1079.65 437.569 L 1052.71 467.91 C 1044.1 477.31 1037.38 484.756 1028.05 493.555 C 1026.79 464.851 1027.1 435.599 1027.1 406.838 z" fill="rgb(62,8,104)" transform="translate(0,0)"></path>
<path d="M 1016.45 1559.71 C 1020.91 1564.02 1018.06 1635.33 1017.98 1646.51 C 1008.27 1640.81 998.058 1634.22 988.461 1628.24 L 966.493 1614.02 C 983.273 1597.58 1000.31 1577.16 1016.45 1559.71 z" fill="rgb(62,8,104)" transform="translate(0,0)"></path>
<path d="M 1015.83 407.822 C 1017.18 408.018 1016.43 407.775 1017.94 408.915 C 1018.45 437.129 1018.47 465.35 1017.99 493.565 L 996.597 470.347 C 986.795 459.912 977.309 449.185 968.15 438.18 C 983.942 427.904 999.835 417.784 1015.83 407.822 z" fill="rgb(62,8,104)" transform="translate(0,0)"></path>
<path d="M 402.383 1029.7 L 488.926 1030.12 C 480.249 1038.06 471.103 1045.97 462.276 1053.79 C 452.582 1062.65 442.824 1071.43 433.001 1080.15 C 422.543 1063.49 412.336 1046.67 402.383 1029.7 z" fill="rgb(62,8,104)" transform="translate(0,0)"></path>
<path d="M 432.905 971.445 C 438.285 974.217 479.999 1012.61 487.789 1019.62 L 486.871 1019.73 C 476.333 1020.93 470.095 1020.92 459.5 1020.93 C 441.238 1021.05 422.976 1020.67 404.734 1019.81 C 413.16 1003.93 423.748 987.22 432.905 971.445 z" fill="rgb(62,8,104)" transform="translate(0,0)"></path>
<path d="M 1608.41 967.83 C 1615.39 975.521 1635.52 1008.65 1641.17 1018 C 1628.54 1019.46 1607.87 1018.95 1594.5 1018.95 L 1559.7 1018.98 C 1576.32 1001.78 1592.5 985.852 1608.41 967.83 z" fill="rgb(62,8,104)" transform="translate(0,0)"></path>
<path d="M 1579.78 1031.45 C 1600 1030.57 1621.84 1030.98 1642.07 1031.39 C 1635.35 1040 1623.78 1059.51 1617.51 1069.43 L 1611.6 1079 C 1594.64 1061.71 1579.44 1047.19 1560.66 1032.06 L 1579.78 1031.45 z" fill="rgb(62,8,104)" transform="translate(0,0)"></path>
<path d="M 1643.33 932.691 L 1644.35 933.624 C 1649.14 948.232 1650.04 995.967 1650.18 1011.76 C 1646.57 1007.04 1642.78 1000.77 1639.52 995.667 L 1616.69 960.654 C 1625.71 951.47 1634.6 942.148 1643.33 932.691 z" fill="rgb(62,8,104)" transform="translate(0,0)"></path>
<path d="M 1650.58 1034.7 C 1652.94 1046.14 1647.75 1098.89 1646.77 1112.66 L 1632.56 1099.76 L 1618.97 1086.18 C 1628.87 1069.22 1640.28 1052.37 1650.58 1034.7 z" fill="rgb(62,8,104)" transform="translate(0,0)"></path>
<path d="M 1033.32 399.108 C 1048.63 398.07 1092.51 402.343 1107.69 405.337 C 1104.03 411.046 1100.32 415.304 1095.99 420.5 L 1085.6 432.181 C 1069.28 421.073 1050.21 409.741 1033.32 399.108 z" fill="rgb(62,8,104)" transform="translate(0,0)"></path>
<path d="M 1086.28 1619.84 C 1090.26 1621.22 1107.96 1642.08 1111.99 1646.73 C 1097.83 1646.94 1077.25 1650.34 1061.84 1651.2 C 1053.64 1652.17 1043.97 1652.68 1035.63 1653.34 C 1052.26 1643.21 1070 1630.8 1086.28 1619.84 z" fill="rgb(62,8,104)" transform="translate(0,0)"></path>
<path d="M 1000.75 399.442 L 1012.71 398.849 C 1006 403.392 966.852 430.527 962.092 430.47 L 959.144 427.306 C 952.672 419.636 946.246 411.928 939.865 404.182 C 956.665 403.873 981.843 400.368 1000.75 399.442 z" fill="rgb(62,8,104)" transform="translate(0,0)"></path>
<path d="M 960.006 1621.11 C 965.477 1623.58 1002.53 1648.57 1008.96 1652.99 C 1001 1652.12 992.801 1651.47 984.806 1650.74 C 968.77 1649.02 952.711 1647.52 936.635 1646.24 C 944.003 1639.37 953.071 1628.76 960.006 1621.11 z" fill="rgb(62,8,104)" transform="translate(0,0)"></path>
<path d="M 396.13 1040.72 C 399.768 1043.78 422.22 1080.51 425.581 1085.95 L 415.317 1094.9 L 400.314 1107.73 C 397.579 1083.42 396.574 1065.27 396.13 1040.72 z" fill="rgb(62,8,104)" transform="translate(0,0)"></path>
<path d="M 400.829 943.633 C 405.372 946.547 420.423 960.117 425.971 964.558 C 419.819 972.962 411.619 986.897 405.864 996.097 L 395.852 1012.24 C 395.826 991.14 398.461 964.717 400.829 943.633 z" fill="rgb(62,8,104)" transform="translate(0,0)"></path>
<metadata><recraft-signature>{"signed_by": "recraft", "signature_b64": "5GP9dnBTmOWFt8ZzbEW6gZ23t3FHM/F7I+qMEBXv9Zj5qYvLfTpW4WgfVVyZ7dNmpYD/e7cNJDsKEW3zZpf8Ag==", "signing_algo": "Ed25519", "generation_timestamp": 1781102342, "identifier": "75f24b51-b835-4793-b80c-3f6ccad602c3"}</recraft-signature></metadata></svg>