<svg xmlns="http://www.w3.org/2000/svg" height="1024" preserveAspectRatio="none" style="display: block;" version="1.1" viewBox="0 0 2048 2048" width="1024">
<path d="M 0 0 L 2048 0 L 2048 2048 L 0 2048 L 0 0 z" fill="rgb(0,0,0)" transform="translate(0,0)"></path>
<path d="M 1342.75 1047.42 C 1352.35 1047.08 1359.98 1047.05 1369.57 1047.4 C 1373.74 1059.85 1375.32 1070.02 1375.04 1083.28 C 1374.2 1123.37 1357.53 1161.49 1328.67 1189.32 C 1298 1218.37 1263.98 1227.93 1222.9 1226.65 L 1223.02 1309.24 C 1223.02 1319.45 1225.04 1352.75 1219 1360.19 C 1209.59 1363.61 1151.4 1362.27 1138.03 1362.29 C 1138.03 1375.4 1139.51 1428.29 1135.54 1437.22 C 1128.45 1440.51 1045.41 1441.08 1032.96 1440.03 C 1007.43 1437.88 936.065 1444.11 915.419 1437.5 C 909.636 1430.72 912.069 1374.99 912.176 1362.12 C 901.017 1362.12 835.859 1364.08 832.436 1360.53 C 829.908 1357.91 829.381 1353.05 829.028 1349.6 C 827.692 1336.57 828.727 1322.57 828.713 1309.4 C 828.625 1281.72 828.726 1254.04 829.016 1226.36 C 804.97 1229.49 782.916 1225.45 760.851 1215.95 C 751.641 1211.49 725.719 1200.93 738.952 1187.59 C 745.422 1180.37 759.079 1192.5 766.392 1196.05 C 810.671 1217.55 858.947 1207.22 891.993 1171.08 C 877.472 1171 812.467 1172.21 805.791 1157.58 C 805.421 1153.65 808.176 1143.66 812.691 1143.93 C 826.811 1144.8 840.933 1149.79 855.375 1150.51 C 873.711 1151.44 891.05 1153.1 908.035 1144.68 C 912.326 1142.68 920.752 1138.33 924.711 1137.7 C 928.787 1139.08 929.035 1139.07 932.041 1142 C 935.297 1151.71 933.369 1223.43 933.194 1237.84 C 994.598 1237.76 1055.54 1236.63 1117.07 1237.41 C 1117 1226.07 1116.27 1145.19 1119.93 1141.28 C 1122.19 1138.87 1128.25 1137.27 1131.43 1138.32 C 1135.36 1139.61 1138.51 1144.32 1142.61 1146.07 C 1154.71 1151.24 1172.85 1150.55 1185.9 1149.91 C 1233.88 1147.55 1284.05 1122.14 1315.06 1085.57 C 1324.62 1074.3 1333.26 1057.52 1342.18 1048 C 1342.36 1047.81 1342.56 1047.61 1342.75 1047.42 z" fill="rgb(161,0,255)" transform="translate(0,0)"></path>
<path d="M 1353.53 1068.66 C 1359.61 1088.87 1346.49 1130.76 1335.59 1148.63 C 1318.61 1176.7 1291.09 1196.78 1259.18 1204.38 C 1231.54 1211.05 1209.75 1203.7 1186.02 1189.08 C 1177.22 1183.33 1171.67 1178.26 1164.45 1170.76 C 1224.25 1172.2 1275.71 1152.91 1319.1 1110.9 C 1331.48 1098.91 1342.99 1082.4 1353.53 1068.66 z" fill="rgb(0,0,0)" transform="translate(0,0)"></path>
<path d="M 932.949 1257.97 L 1015.81 1257.92 L 1016 1341.99 L 932.982 1341.39 L 932.949 1257.97 z" fill="rgb(0,0,0)" transform="translate(0,0)"></path>
<path d="M 1087.54 1258.5 C 1097.37 1258.38 1107.21 1258.41 1117.02 1258.19 C 1116.84 1286.12 1117.09 1314.04 1117.78 1341.96 L 1069.25 1341.88 L 1035.8 1341.87 L 1035.98 1258.71 C 1053.16 1258.75 1070.35 1258.67 1087.54 1258.5 z" fill="rgb(0,0,0)" transform="translate(0,0)"></path>
<path d="M 1138 1258.08 L 1202.01 1258.03 L 1201.98 1315.52 C 1201.98 1320.55 1202.29 1337.69 1201.62 1341.76 C 1180.55 1341.94 1159.47 1341.98 1138.39 1341.88 C 1138.65 1314.06 1138 1285.97 1138 1258.08 z" fill="rgb(0,0,0)" transform="translate(0,0)"></path>
<path d="M 849.194 1257.11 C 870.312 1258 891.452 1258.28 912.586 1257.97 L 912.652 1341.79 L 848.814 1341.93 L 849.194 1257.11 z" fill="rgb(0,0,0)" transform="translate(0,0)"></path>
<path d="M 932.911 1362.43 C 960.492 1362.29 988.074 1362.32 1015.65 1362.53 C 1015.29 1381.33 1015.3 1400.13 1015.69 1418.93 C 988.577 1419.34 960.164 1418.94 932.964 1418.9 C 933.094 1400.49 932.491 1380.59 932.911 1362.43 z" fill="rgb(0,0,0)" transform="translate(0,0)"></path>
<path d="M 1035.75 1362.94 C 1062.54 1363.24 1090.49 1362.97 1117.31 1362.79 L 1117.19 1419.03 L 1035.7 1418.91 L 1035.75 1362.94 z" fill="rgb(0,0,0)" transform="translate(0,0)"></path>
<path d="M 1138.3 1175.55 C 1142.44 1178.02 1147.85 1185.25 1151.87 1189.14 C 1167.31 1204.1 1181.22 1213.17 1201.11 1220.74 C 1201.06 1226.32 1201.16 1232.03 1201.03 1237.59 L 1138.37 1237.77 C 1138.69 1216.99 1137.91 1196.28 1138.3 1175.55 z" fill="rgb(0,0,0)" transform="translate(0,0)"></path>
<path d="M 910.646 1179.87 C 912.997 1182.29 912.098 1229.91 912.122 1237.84 C 891.463 1237.79 870.803 1237.85 850.145 1238.04 C 849.417 1234.79 849.193 1226.38 848.957 1222.75 L 850.136 1222.27 C 886.619 1207.12 883.816 1203.36 910.646 1179.87 z" fill="rgb(0,0,0)" transform="translate(0,0)"></path>
<path d="M 1024.74 612.126 C 1036.25 611.146 1049.54 613.157 1061.27 614.598 C 1125.31 622.467 1188.66 648.924 1240.07 687.841 C 1242.89 689.876 1248.59 695.901 1248.02 699.735 C 1244.61 721.901 1220.99 700.743 1212.29 694.329 C 1160.61 656.228 1101.8 639.979 1039 633.07 C 1038.28 699.919 1039.08 767.611 1039.14 834.559 C 1045.96 826.999 1053.35 819.961 1061.23 813.506 C 1102.03 779.856 1149.89 763.121 1202.99 768.169 C 1251.61 772.791 1298.55 795.377 1329.92 833.324 C 1318.79 808.561 1299.4 780.229 1282 759.199 C 1276.84 752.951 1256.49 732.131 1254.94 726.91 C 1255.26 720.489 1260.8 714.004 1266.19 714.807 C 1274.52 716.049 1290.52 736.682 1295.64 742.678 C 1344.35 800.523 1372.86 872.689 1376.81 948.212 C 1377.29 958.04 1379.36 1031.09 1356.32 1011.14 C 1350.84 1006.39 1356.49 974.402 1356.77 965.546 C 1359.59 874.622 1287.77 792.476 1196.07 788.057 C 1140.47 785.133 1086.84 809.051 1051.87 852.369 C 1043.68 862.382 1039.01 872.316 1031.62 882.389 C 1030.13 884.419 1021.94 884.507 1020.67 882.999 C 1013.36 874.274 1008.63 864.488 1001.43 855.426 L 1000.31 854.026 C 965.014 812.449 922.025 789.689 866.788 790.067 C 809.869 790.458 762.388 817.508 728.47 862.36 C 704.4 894.313 691.709 933.397 692.414 973.395 C 692.743 985.629 694.482 998.244 696.597 1010.42 C 698.612 1019.32 694.698 1027.41 684.414 1025.96 C 675.531 1024.72 674.413 1004.64 673.773 997.901 C 670.381 961.929 672.271 925.654 679.383 890.229 C 699.073 799.45 754.192 720.289 832.499 670.323 C 873.346 643.762 942.358 615.619 994.626 615.088 C 1000.72 615.026 1002.76 625.409 999.907 629.656 C 994.716 637.38 976.324 635.725 967.822 638.256 C 875.503 656.53 790.973 709.892 741.726 791.056 C 730.496 809.565 722.137 827.795 712.975 847.857 C 721.954 837.879 733.227 825.045 743.064 816.502 C 781.614 783.538 831.955 766.285 882.709 770.075 C 938.905 774.271 981.626 799.636 1018 841.374 C 1018.68 791.813 1018.86 742.247 1018.55 692.683 C 1018.43 668.804 1017.74 641.625 1019.14 617.601 C 1019.27 615.286 1022.7 613.468 1024.74 612.126 z" fill="rgb(161,0,255)" transform="translate(0,0)"></path>
<path d="M 860.558 836.406 C 876.185 833.666 903.897 839.015 918.679 844.732 C 952.191 857.733 979.144 883.548 993.576 916.47 C 1002.44 936.521 1005.46 957.258 1004.26 979.061 C 1004.5 986.544 1003.69 1001.51 993.752 1003.26 C 978.413 1005.96 986.542 970.722 984.482 962.424 C 983.261 957.504 983.089 952.83 982.2 948.478 C 975.779 918.375 957.8 891.995 932.129 875.011 C 907.622 858.717 877.599 852.946 848.797 858.991 C 815.983 865.685 791.286 884.327 773.058 911.83 C 743.16 960.512 753.217 1020.85 796.744 1057.02 C 802.279 1063.12 824.692 1073.67 827.372 1080.59 C 829.842 1086.97 820.164 1097.61 811.69 1092.63 C 804.006 1088.11 792.093 1080.46 784.426 1074.13 C 690.78 996.803 740.141 847.906 860.558 836.406 z" fill="rgb(161,0,255)" transform="translate(0,0)"></path>
<path d="M 1289.94 1012.57 C 1323.09 1016.41 1284.16 1057.93 1274.89 1067.24 C 1250.35 1091.58 1217.03 1105.01 1182.47 1104.47 C 1138.2 1104.1 1107.43 1086.79 1077.36 1056.23 C 1075.57 1097.92 1078.3 1143.99 1077.2 1186.02 C 1077.1 1189.95 1077.51 1199.87 1074.79 1202.28 C 1068.6 1207.75 1049.19 1206.08 1040.75 1205.97 C 1031.82 1205.28 1030.08 1194.72 1033.2 1187.83 C 1038.51 1183.46 1049.35 1185.04 1056.95 1185.22 C 1057.02 1138.44 1057.01 1091.66 1056.91 1044.89 C 1056.89 1037.57 1058.78 1034.59 1066.14 1033.31 C 1072.11 1032.26 1081.58 1033.22 1087.75 1033.55 C 1093.69 1040.65 1095.92 1044.97 1103.21 1051.88 C 1125.21 1073.04 1154.79 1084.48 1185.31 1083.63 C 1220.8 1082.48 1249.87 1067.51 1271.71 1039.62 C 1278.19 1031.35 1282.54 1019.87 1289.94 1012.57 z" fill="rgb(161,0,255)" transform="translate(0,0)"></path>
<path d="M 974.895 1016.99 C 984.168 1016.42 993.519 1016.95 993.403 1028.59 C 993.239 1045.12 993.046 1061.66 992.941 1078.19 L 992.17 1185.12 C 999.937 1185.05 1013.38 1182 1016.19 1191.74 C 1021.81 1210.9 971.165 1210.58 971.651 1195.85 C 971.979 1185.87 972.032 1171.18 972.05 1160.68 L 972.138 1068.84 C 972.283 1065.88 972.57 1064.67 971.481 1061.88 C 969.01 1062.36 956.836 1073.48 953.016 1076.48 C 924.593 1098.89 882.233 1112.84 846.649 1102.96 C 838.36 1100.66 838.465 1082.86 847.395 1084.05 C 890.633 1089.84 933.126 1075.31 960.356 1040.4 C 964.731 1034.8 969.985 1024.46 974.895 1016.99 z" fill="rgb(161,0,255)" transform="translate(0,0)"></path>
<path d="M 678.801 1049.33 C 687.655 1048.93 696.524 1049.08 705.36 1049.77 C 709.299 1053.71 717.626 1067.97 721.245 1073.55 C 727.347 1082.89 734.414 1091.56 742.329 1099.43 C 757.155 1114.21 772.54 1120.59 789.448 1131.99 C 796.801 1136.95 789.34 1152.79 780.295 1149.67 C 764.88 1144.36 751.183 1132.53 738.55 1122.57 C 725.391 1112.19 714.888 1100.98 705.323 1087.47 L 693.15 1068.64 C 693.064 1100.91 696.868 1120.37 713.985 1149.49 C 715.857 1153.22 728.064 1166.34 727.427 1169.98 C 724.115 1188.89 709.436 1178.28 703.498 1170.11 C 680.729 1138.78 669.355 1101.65 673.291 1063.05 C 673.786 1058.2 674.827 1052.32 678.801 1049.33 z" fill="rgb(161,0,255)" transform="translate(0,0)"></path>
<path d="M 1174.7 838.414 C 1180.75 837.711 1188.96 838.269 1189.63 845.534 C 1190.95 859.921 1175.67 859.527 1165.97 860.356 C 1158.21 861.021 1154.14 863.675 1147.66 865.628 C 1098.44 880.473 1067.12 927.725 1069.32 978.582 C 1069.71 987.311 1073.38 997.495 1073.82 1006.48 C 1073.96 1009.45 1071.87 1011.37 1070.01 1013.5 C 1065.5 1014.87 1061.88 1015.99 1057.46 1013.97 C 1053.23 1009.93 1052.55 1004.13 1051.88 998.481 C 1046.88 956.696 1052.13 921.912 1079.45 888.508 C 1103.31 859.856 1137.57 841.84 1174.7 838.414 z" fill="rgb(161,0,255)" transform="translate(0,0)"></path>
<path d="M 1211.92 841.688 C 1213.16 841.847 1214.39 842.056 1215.61 842.316 C 1272.83 854.71 1316.64 915.49 1315.46 972.709 C 1315.2 984.864 1318.76 992.761 1306.87 1000.13 C 1288.3 1000.2 1295.24 984.577 1294.93 972.976 C 1293.63 925.65 1267.5 883.033 1222.16 866.571 C 1207.79 861.351 1197.2 856.455 1211.92 841.688 z" fill="rgb(161,0,255)" transform="translate(0,0)"></path>
<metadata><recraft-signature>{"signed_by": "recraft", "signature_b64": "tTCCVvXFj3eTOqG9SgLephOuuHF43Sjg6cZlsOzR/nHPGggcCd58KjeRRli3ZlWBhsJCC/Qbk3lCeJwDlSxZAQ==", "signing_algo": "Ed25519", "generation_timestamp": 1781209208, "identifier": "4ca01458-bf04-4ba0-872c-5bdd5d9e9313"}</recraft-signature></metadata></svg>